<svg width="250" height="48" viewBox="0 0 250 48" fill="none" xmlns="http://www.w3.org/2000/svg" class="my-4 h-7 dark:hidden">
    <path d="M56.4683 21.3711H69.9483V26.4111H56.4683V21.3711ZM56.9483 32.8911H72.1883V38.0911H50.5083V10.0911H71.6683V15.2911H56.9483V32.8911Z" fill="#2F2F31"></path>
    <path d="M90.7442 38.5711C88.5842 38.5711 86.5709 38.2245 84.7042 37.5311C82.8642 36.8111 81.2642 35.7978 79.9042 34.4911C78.5442 33.1845 77.4776 31.6511 76.7042 29.8911C75.9576 28.1311 75.5842 26.1978 75.5842 24.0911C75.5842 21.9845 75.9576 20.0511 76.7042 18.2911C77.4776 16.5311 78.5442 14.9978 79.9042 13.6911C81.2909 12.3845 82.9042 11.3845 84.7442 10.6911C86.5842 9.97114 88.5976 9.61115 90.7842 9.61115C93.2109 9.61115 95.3976 10.0378 97.3442 10.8911C99.3176 11.7178 100.971 12.9445 102.304 14.5711L98.1442 18.4111C97.1842 17.3178 96.1176 16.5045 94.9442 15.9711C93.7709 15.4111 92.4909 15.1311 91.1042 15.1311C89.7976 15.1311 88.5976 15.3445 87.5042 15.7711C86.4109 16.1978 85.4642 16.8111 84.6642 17.6111C83.8642 18.4111 83.2376 19.3578 82.7842 20.4511C82.3576 21.5445 82.1442 22.7578 82.1442 24.0911C82.1442 25.4245 82.3576 26.6378 82.7842 27.7311C83.2376 28.8245 83.8642 29.7711 84.6642 30.5711C85.4642 31.3711 86.4109 31.9845 87.5042 32.4111C88.5976 32.8378 89.7976 33.0511 91.1042 33.0511C92.4909 33.0511 93.7709 32.7845 94.9442 32.2511C96.1176 31.6911 97.1842 30.8511 98.1442 29.7311L102.304 33.5711C100.971 35.1978 99.3176 36.4378 97.3442 37.2911C95.3976 38.1445 93.1976 38.5711 90.7442 38.5711Z" fill="#2F2F31"></path>
    <path d="M119.694 38.5711C117.481 38.5711 115.428 38.2111 113.534 37.4911C111.668 36.7711 110.041 35.7578 108.654 34.4511C107.294 33.1445 106.228 31.6111 105.454 29.8511C104.708 28.0911 104.334 26.1711 104.334 24.0911C104.334 22.0111 104.708 20.0911 105.454 18.3311C106.228 16.5711 107.308 15.0378 108.694 13.7311C110.081 12.4245 111.708 11.4111 113.574 10.6911C115.441 9.97114 117.468 9.61115 119.654 9.61115C121.868 9.61115 123.894 9.97114 125.734 10.6911C127.601 11.4111 129.214 12.4245 130.574 13.7311C131.961 15.0378 133.041 16.5711 133.814 18.3311C134.588 20.0645 134.974 21.9845 134.974 24.0911C134.974 26.1711 134.588 28.1045 133.814 29.8911C133.041 31.6511 131.961 33.1845 130.574 34.4911C129.214 35.7711 127.601 36.7711 125.734 37.4911C123.894 38.2111 121.881 38.5711 119.694 38.5711ZM119.654 33.0511C120.908 33.0511 122.054 32.8378 123.094 32.4111C124.161 31.9845 125.094 31.3711 125.894 30.5711C126.694 29.7711 127.308 28.8245 127.734 27.7311C128.188 26.6378 128.414 25.4245 128.414 24.0911C128.414 22.7578 128.188 21.5445 127.734 20.4511C127.308 19.3578 126.694 18.4111 125.894 17.6111C125.121 16.8111 124.201 16.1978 123.134 15.7711C122.068 15.3445 120.908 15.1311 119.654 15.1311C118.401 15.1311 117.241 15.3445 116.174 15.7711C115.134 16.1978 114.214 16.8111 113.414 17.6111C112.614 18.4111 111.988 19.3578 111.534 20.4511C111.108 21.5445 110.894 22.7578 110.894 24.0911C110.894 25.3978 111.108 26.6111 111.534 27.7311C111.988 28.8245 112.601 29.7711 113.374 30.5711C114.174 31.3711 115.108 31.9845 116.174 32.4111C117.241 32.8378 118.401 33.0511 119.654 33.0511Z" fill="#2F2F31"></path>
    <path d="M139.844 38.0911V10.0911H152.564C155.604 10.0911 158.284 10.6778 160.604 11.8511C162.924 12.9978 164.738 14.6111 166.044 16.6911C167.351 18.7711 168.004 21.2378 168.004 24.0911C168.004 26.9178 167.351 29.3845 166.044 31.4911C164.738 33.5711 162.924 35.1978 160.604 36.3711C158.284 37.5178 155.604 38.0911 152.564 38.0911H139.844ZM146.324 32.7711H152.244C154.111 32.7711 155.724 32.4245 157.084 31.7311C158.471 31.0111 159.538 29.9978 160.284 28.6911C161.058 27.3845 161.444 25.8511 161.444 24.0911C161.444 22.3045 161.058 20.7711 160.284 19.4911C159.538 18.1845 158.471 17.1845 157.084 16.4911C155.724 15.7711 154.111 15.4111 152.244 15.4111H146.324V32.7711Z" fill="#2F2F31"></path>
    <path d="M172.891 38.0911V10.0911H179.371V38.0911H172.891Z" fill="#2F2F31"></path>
    <path d="M186.016 38.0911V10.0911H191.376L207.896 30.2511H205.296V10.0911H211.696V38.0911H206.376L189.816 17.9311H192.416V38.0911H186.016Z" fill="#2F2F31"></path>
    <path d="M231.841 38.5711C229.627 38.5711 227.587 38.2245 225.721 37.5311C223.881 36.8111 222.267 35.7978 220.881 34.4911C219.521 33.1845 218.454 31.6511 217.681 29.8911C216.934 28.1311 216.561 26.1978 216.561 24.0911C216.561 21.9845 216.934 20.0511 217.681 18.2911C218.454 16.5311 219.534 14.9978 220.921 13.6911C222.307 12.3845 223.934 11.3845 225.801 10.6911C227.667 9.97114 229.721 9.61115 231.961 9.61115C234.441 9.61115 236.667 10.0245 238.641 10.8511C240.641 11.6778 242.321 12.8778 243.681 14.4511L239.521 18.2911C238.507 17.2245 237.401 16.4378 236.201 15.9311C235.001 15.3978 233.694 15.1311 232.281 15.1311C230.921 15.1311 229.681 15.3445 228.561 15.7711C227.441 16.1978 226.467 16.8111 225.641 17.6111C224.841 18.4111 224.214 19.3578 223.761 20.4511C223.334 21.5445 223.121 22.7578 223.121 24.0911C223.121 25.3978 223.334 26.5978 223.761 27.6911C224.214 28.7845 224.841 29.7445 225.641 30.5711C226.467 31.3711 227.427 31.9845 228.521 32.4111C229.641 32.8378 230.867 33.0511 232.201 33.0511C233.481 33.0511 234.721 32.8511 235.921 32.4511C237.147 32.0245 238.334 31.3178 239.481 30.3311L243.161 35.0111C241.641 36.1578 239.867 37.0378 237.841 37.6511C235.841 38.2645 233.841 38.5711 231.841 38.5711ZM237.241 34.1711V23.6511H243.161V35.0111L237.241 34.1711Z" fill="#2F2F31"></path>
    <path d="M40.1554 6.31943C42.3765 6.32219 43.8955 8.564 43.0747 10.6278L31.0911 40.7601C30.0018 43.4992 26.0813 43.3686 25.1756 40.5631L19.9071 24.2444C19.7233 23.6753 19.3812 23.1703 18.9207 22.7886L5.71782 11.8463C3.44792 9.96504 4.77994 6.27549 7.72771 6.27915L40.1554 6.31943Z" fill="#A31745"></path>
    <path d="M31.9561 38.6741L43.0727 10.7218C43.8934 8.65798 42.3745 6.41616 40.1534 6.4134L7.7257 6.37313C5.26816 6.37007 3.93364 8.93397 4.87303 10.8769C5.28501 11.4283 5.62624 11.8186 6.07957 12.2418L8.09167 13.9094C8.17241 13.9734 8.25566 14.0394 8.34154 14.1074C10.238 15.6105 13.4199 18.1324 19.354 23.229C27.4267 30.1624 30.8331 35.6293 31.9561 38.6741Z" fill="#E30B50"></path>
    <rect x="10.7076" y="26.6472" width="4.61487" height="4.61487" rx="2.30744" transform="rotate(-34.1206 10.7076 26.6472)" fill="#FF2F71"></rect>
</svg>